<svg width="1310" height="729" viewBox="0 0 1310 729" fill="none" xmlns="http://www.w3.org/2000/svg">
<mask id="path-1-inside-1_1804_2" fill="white">
<path d="M944.592 0C1145.9 0 1309.09 163.193 1309.09 364.501C1309.09 565.809 1145.9 729.003 944.592 729.003H364.501C163.193 729.003 0 565.809 0 364.501C0.000132016 163.193 163.193 4.45853e-05 364.501 0H476.69C511.125 27.4751 577.05 46.0556 652.72 46.0557C728.39 46.0557 794.316 27.4753 828.75 0H944.592Z"/>
</mask>
<path d="M1309.09 364.501H1311.29H1309.09ZM944.592 729.003V731.197V729.003ZM0 364.501H-2.19444H0ZM364.501 0V-2.19444V0ZM476.69 0L478.059 -1.71533L477.459 -2.19444H476.69V0ZM652.72 46.0557V48.2501V46.0557ZM828.75 0V-2.19444H827.982L827.381 -1.71532L828.75 0ZM944.592 0V2.19444C1144.69 2.19444 1306.9 164.405 1306.9 364.501H1309.09H1311.29C1311.29 161.981 1147.11 -2.19444 944.592 -2.19444V0ZM1309.09 364.501H1306.9C1306.9 564.597 1144.69 726.808 944.592 726.808V729.003V731.197C1147.11 731.197 1311.29 567.021 1311.29 364.501H1309.09ZM944.592 729.003V726.808H364.501V729.003V731.197H944.592V729.003ZM364.501 729.003V726.808C164.405 726.808 2.19444 564.597 2.19444 364.501H0H-2.19444C-2.19444 567.021 161.981 731.197 364.501 731.197V729.003ZM0 364.501H2.19444C2.19457 164.405 164.405 2.19449 364.501 2.19444V0V-2.19444C161.981 -2.1944 -2.19431 161.981 -2.19444 364.501H0ZM364.501 0V2.19444H476.69V0V-2.19444H364.501V0ZM476.69 0L475.322 1.71533C510.308 29.631 576.812 48.2501 652.72 48.2501V46.0557V43.8612C577.288 43.8612 511.941 25.3192 478.059 -1.71533L476.69 0ZM652.72 46.0557V48.2501C728.627 48.2501 795.132 29.6312 830.119 1.71532L828.75 0L827.381 -1.71532C793.499 25.3194 728.152 43.8612 652.72 43.8612V46.0557ZM828.75 0V2.19444H944.592V0V-2.19444H828.75V0Z" fill="white" fill-opacity="0.3" mask="url(#path-1-inside-1_1804_2)"/>
<mask id="path-3-inside-2_1804_2" fill="white">
<path d="M942.893 22.2109C1131.72 22.211 1284.8 175.286 1284.8 364.115C1284.8 552.944 1131.72 706.02 942.893 706.021H367.247C178.418 706.021 25.3418 552.944 25.3418 364.115C25.342 175.286 178.418 22.2109 367.247 22.2109H482.713C516.093 48.6644 580.922 66.6084 655.428 66.6084C729.933 66.6083 794.762 48.6646 828.143 22.2109H942.893Z"/>
</mask>
<path d="M942.893 22.2109V20.0165V22.2109ZM1284.8 364.115H1286.99H1284.8ZM942.893 706.021V708.215V706.021ZM25.3418 364.115H23.1474H25.3418ZM482.713 22.2109L484.076 20.4911L483.477 20.0165H482.713V22.2109ZM655.428 66.6084V68.8028V66.6084ZM828.143 22.2109V20.0165H827.378L826.78 20.4911L828.143 22.2109ZM942.893 22.2109V24.4054C1130.51 24.4055 1282.6 176.498 1282.6 364.115H1284.8H1286.99C1286.99 174.074 1132.93 20.0166 942.893 20.0165V22.2109ZM1284.8 364.115H1282.6C1282.6 551.732 1130.51 703.826 942.893 703.826V706.021V708.215C1132.93 708.215 1286.99 554.156 1286.99 364.115H1284.8ZM942.893 706.021V703.826H367.247V706.021V708.215H942.893V706.021ZM367.247 706.021V703.826C179.63 703.826 27.5362 551.732 27.5362 364.115H25.3418H23.1474C23.1474 554.156 177.206 708.215 367.247 708.215V706.021ZM25.3418 364.115H27.5362C27.5364 176.498 179.63 24.4054 367.247 24.4054V22.2109V20.0165C177.206 20.0165 23.1475 174.074 23.1474 364.115H25.3418ZM367.247 22.2109V24.4054H482.713V22.2109V20.0165H367.247V22.2109ZM482.713 22.2109L481.35 23.9308C515.287 50.8254 580.698 68.8028 655.428 68.8028V66.6084V64.414C581.147 64.414 516.9 46.5035 484.076 20.4911L482.713 22.2109ZM655.428 66.6084V68.8028C730.158 68.8028 795.569 50.8255 829.506 23.9308L828.143 22.2109L826.78 20.4911C793.956 46.5036 729.708 64.4139 655.428 64.414V66.6084ZM828.143 22.2109V24.4054H942.893V22.2109V20.0165H828.143V22.2109Z" fill="white" fill-opacity="0.5" mask="url(#path-3-inside-2_1804_2)"/>
</svg>
