<svg width="1705" height="729" viewBox="0 0 1705 729" fill="none" xmlns="http://www.w3.org/2000/svg">
<mask id="path-1-inside-1_1804_16" fill="white">
<path d="M1340.5 0C1541.81 5.32817e-05 1705 163.193 1705 364.501C1705 565.809 1541.81 729.003 1340.5 729.003H364.501C163.193 729.003 0 565.809 0 364.501C0.000132016 163.193 163.193 5.32817e-05 364.501 0H620.854C665.703 27.475 751.566 46.0556 850.12 46.0557C948.674 46.0557 1034.54 27.4749 1079.39 0H1340.5Z"/>
</mask>
<path d="M1340.5 0V-2.19444V0ZM1705 364.501H1707.19H1705ZM1340.5 729.003V731.197V729.003ZM364.501 729.003V731.197V729.003ZM0 364.501H-2.19444H0ZM364.501 0V-2.19444V0ZM620.854 0L622.001 -1.87122L621.473 -2.19444H620.854V0ZM850.12 46.0557V48.2501V46.0557ZM1079.39 0V-2.19444H1078.77L1078.24 -1.87122L1079.39 0ZM1340.5 0V2.19444C1540.6 2.19449 1702.81 164.405 1702.81 364.501H1705H1707.19C1707.19 161.981 1543.02 -2.19439 1340.5 -2.19444V0ZM1705 364.501H1702.81C1702.81 564.597 1540.6 726.808 1340.5 726.808V729.003V731.197C1543.02 731.197 1707.19 567.021 1707.19 364.501H1705ZM1340.5 729.003V726.808H364.501V729.003V731.197H1340.5V729.003ZM364.501 729.003V726.808C164.405 726.808 2.19444 564.597 2.19444 364.501H0H-2.19444C-2.19444 567.021 161.981 731.197 364.501 731.197V729.003ZM0 364.501H2.19444C2.19457 164.405 164.405 2.19449 364.501 2.19444V0V-2.19444C161.981 -2.19439 -2.19431 161.981 -2.19444 364.501H0ZM364.501 0V2.19444H620.854V0V-2.19444H364.501V0ZM620.854 0L619.708 1.87122C665.065 29.6578 751.41 48.2501 850.12 48.2501V46.0557V43.8612C751.722 43.8612 666.341 25.2921 622.001 -1.87122L620.854 0ZM850.12 46.0557V48.2501C948.83 48.2501 1035.17 29.6577 1080.53 1.87122L1079.39 0L1078.24 -1.87122C1033.9 25.2921 948.518 43.8612 850.12 43.8612V46.0557ZM1079.39 0V2.19444H1340.5V0V-2.19444H1079.39V0Z" fill="white" fill-opacity="0.3" mask="url(#path-1-inside-1_1804_16)"/>
<mask id="path-3-inside-2_1804_16" fill="white">
<path d="M1339.1 22.2109C1527.92 22.2109 1681 175.287 1681 364.116C1681 552.945 1527.92 706.021 1339.1 706.021H367.247C178.418 706.021 25.3419 552.945 25.3418 364.116C25.3418 175.287 178.418 22.2109 367.247 22.2109H626.594C670.475 48.6643 755.699 66.6074 853.643 66.6074C951.586 66.6074 1036.81 48.6643 1080.69 22.2109H1339.1Z"/>
</mask>
<path d="M1681 364.116H1683.2H1681ZM1339.1 706.021V708.216V706.021ZM25.3418 364.116H23.1474H25.3418ZM626.594 22.2109L627.727 20.3316L627.204 20.0165H626.594V22.2109ZM853.643 66.6074V68.8019V66.6074ZM1080.69 22.2109V20.0165H1080.08L1079.56 20.3316L1080.69 22.2109ZM1339.1 22.2109V24.4054C1526.71 24.4054 1678.81 176.499 1678.81 364.116H1681H1683.2C1683.2 174.075 1529.14 20.0165 1339.1 20.0165V22.2109ZM1681 364.116H1678.81C1678.81 551.733 1526.71 703.827 1339.1 703.827V706.021V708.216C1529.14 708.216 1683.2 554.157 1683.2 364.116H1681ZM1339.1 706.021V703.827H367.247V706.021V708.216H1339.1V706.021ZM367.247 706.021V703.827C179.63 703.827 27.5363 551.733 27.5362 364.116H25.3418H23.1474C23.1475 554.157 177.206 708.216 367.247 708.216V706.021ZM25.3418 364.116H27.5362C27.5362 176.499 179.63 24.4054 367.247 24.4054V22.2109V20.0165C177.206 20.0165 23.1474 174.075 23.1474 364.116H25.3418ZM367.247 22.2109V24.4054H626.594V22.2109V20.0165H367.247V22.2109ZM626.594 22.2109L625.461 24.0903C669.851 50.8506 755.555 68.8019 853.643 68.8019V66.6074V64.413C755.844 64.413 671.099 46.4781 627.727 20.3316L626.594 22.2109ZM853.643 66.6074V68.8019C951.73 68.8018 1037.43 50.8505 1081.82 24.0903L1080.69 22.2109L1079.56 20.3316C1036.19 46.4781 951.441 64.4129 853.643 64.413V66.6074ZM1080.69 22.2109V24.4054H1339.1V22.2109V20.0165H1080.69V22.2109Z" fill="white" fill-opacity="0.5" mask="url(#path-3-inside-2_1804_16)"/>
</svg>
