<svg width="27" height="27" viewBox="0 0 27 27" fill="none" xmlns="http://www.w3.org/2000/svg">
<path fill-rule="evenodd" clip-rule="evenodd" d="M13.4996 0.0703125C12.9377 0.0703125 12.5182 0.376401 12.2803 0.592095C12.0185 0.829363 11.7879 1.12964 11.5887 1.42984C11.1867 2.03592 10.7923 2.82776 10.4349 3.63395C9.71467 5.2586 9.06434 7.12664 8.72444 8.14641C8.71945 8.16138 8.70477 8.17314 8.68699 8.17373C7.62205 8.20974 5.67034 8.30525 3.96925 8.55472C3.12884 8.67797 2.28248 8.84791 1.62166 9.09397C1.29628 9.21513 0.941438 9.38133 0.648746 9.62244C0.352517 9.86648 0 10.2942 0 10.9109C0 11.3375 0.161382 11.715 0.307465 11.9846C0.464045 12.2734 0.67098 12.5596 0.892326 12.8299C1.33598 13.3716 1.92261 13.9515 2.52912 14.5031C3.74793 15.6115 5.15939 16.706 5.96244 17.3111C5.97511 17.3207 5.98101 17.3366 5.97576 17.3538C5.66736 18.3663 5.13174 20.2188 4.79102 21.9371C4.62178 22.7906 4.4911 23.657 4.47147 24.3887C4.46171 24.7527 4.47774 25.1295 4.55051 25.4749C4.61831 25.7966 4.76725 26.2484 5.14845 26.5852C5.57629 26.9633 6.09122 27.0135 6.44776 26.9914C6.81235 26.9688 7.1775 26.8634 7.5029 26.7405C8.16003 26.4925 8.9018 26.0775 9.61305 25.6294C11.0499 24.7243 12.5713 23.5494 13.4365 22.8585C13.4522 22.846 13.4752 22.8456 13.4916 22.8588C14.3567 23.5502 15.8795 24.7259 17.327 25.6317C18.044 26.0803 18.7934 26.4953 19.4618 26.743C19.7937 26.8659 20.1625 26.9696 20.5305 26.9916C20.8916 27.0132 21.3923 26.9626 21.8196 26.6117C22.2199 26.283 22.3862 25.8316 22.4634 25.4968C22.5448 25.1442 22.5636 24.7613 22.5545 24.3945C22.5365 23.6574 22.399 22.7877 22.2209 21.9345C21.8621 20.216 21.2945 18.3628 20.9661 17.3462C20.9603 17.3281 20.9665 17.3113 20.9796 17.3014C21.7867 16.6929 23.195 15.5999 24.4097 14.4942C25.0142 13.9441 25.5985 13.3658 26.0404 12.8255C26.2609 12.5559 26.467 12.2703 26.623 11.9822C26.7686 11.7131 26.9292 11.3365 26.9292 10.9109C26.9292 10.2948 26.5774 9.86734 26.2814 9.62323C25.989 9.38211 25.6345 9.2159 25.3096 9.09476C24.6497 8.84872 23.8045 8.67878 22.9652 8.5555C21.2663 8.30594 19.3162 8.21017 18.2488 8.17397C18.2308 8.17335 18.2163 8.16164 18.2115 8.14655C17.8793 7.12373 17.2452 5.25731 16.5396 3.63489C16.1895 2.82992 15.802 2.03885 15.405 1.43302C15.2085 1.13297 14.9799 0.832101 14.719 0.594064C14.4813 0.37706 14.0623 0.0703125 13.4996 0.0703125Z" fill="url(#paint0_linear_1706_3320)"/>
<defs>
<linearGradient id="paint0_linear_1706_3320" x1="0" y1="13.9306" x2="26.9292" y2="13.9306" gradientUnits="userSpaceOnUse">
<stop stop-color="#4EC2EC"/>
<stop offset="1" stop-color="#3F4E9D"/>
</linearGradient>
</defs>
</svg>
